# xmcd CD database file
#
# Track frame offsets:
#	150
#	16037
#	41084
#	66049
#	92816
#	103870
#	117925
#	127594
#	139319
#
# Disc length: 2078 seconds
#
# Revision: 7
# Processed by: cddbd v1.5.1PL0 Copyright (c) Steve Scherf et al.
# Submitted via: CDex 1.51
#
DISCID=72081c09
DTITLE=椎名林檎 - 絶頂集
DYEAR=2000
DGENRE=Japanese Pop
TTITLE0=やっつけ仕事
TTITLE1=ギャンブル
TTITLE2=Jェチ~ッじoTMウ
TTITLE3=メロウ
TTITLE4=不幸自慢
TTITLE5=喪＠CINコ瑠ヲュWァ
TTITLE6=膨らんできちゃった
TTITLE7=はいはい
TTITLE8=光合成
EXTD=YEAR: 2000
EXTT0=
EXTT1=
EXTT2=
EXTT3=
EXTT4=
EXTT5=
EXTT6=
EXTT7=
EXTT8=
PLAYORDER=
